<svg width="499" height="55" viewBox="0 0 499 55" fill="none" xmlns="http://www.w3.org/2000/svg">
<path d="M32.3574 32.4844C32.0137 35.6426 30.7676 38.1562 28.6191 40.0254C26.4922 41.873 23.8281 42.7969 20.627 42.7969C18.8652 42.7969 17.2539 42.5068 15.793 41.9268C14.332 41.3467 13.0859 40.541 12.0547 39.5098C11.0234 38.4785 10.2178 37.2432 9.6377 35.8037C9.0791 34.3428 8.7998 32.7529 8.7998 31.0342V18.0469H2V12.0205H8.7998V0H15.4707V12.0205H28.0713V18.0469H15.4707V31.0342C15.4707 32.9678 15.9434 34.4072 16.8887 35.3525C17.834 36.2979 19.0801 36.7705 20.627 36.7705C22.5176 36.7705 23.9248 36.2227 24.8486 35.127C25.7725 34.0312 26.3203 32.71 26.4922 31.1631L32.3574 32.4844Z" fill="#14142B"/>
<path d="M37.3574 33.4189C37.3574 31.6572 37.8301 30.1211 38.7754 28.8105C39.7207 27.4785 40.9561 26.3721 42.4814 25.4912C44.0283 24.6104 45.79 23.9551 47.7666 23.5254C49.7646 23.0742 51.7949 22.8486 53.8574 22.8486C54.9961 22.8486 55.9736 22.8701 56.79 22.9131C57.6064 22.9561 58.4336 23.0205 59.2715 23.1064V21.9141C59.2715 20.3457 58.6592 19.1748 57.4346 18.4014C56.2314 17.6279 54.6416 17.2412 52.665 17.2412C50.8604 17.2412 49.0234 17.499 47.1543 18.0146C45.2852 18.5088 43.5127 19.2393 41.8369 20.2061L39.1299 14.9854C41.1064 13.8467 43.2227 12.9551 45.4785 12.3105C47.7559 11.6445 50.1514 11.3115 52.665 11.3115C54.2979 11.3115 55.8984 11.4941 57.4668 11.8594C59.0566 12.2246 60.4746 12.8262 61.7207 13.6641C62.9883 14.502 63.998 15.5977 64.75 16.9512C65.502 18.2832 65.8779 19.9375 65.8779 21.9141V42.0557H59.2715V37.6406C58.2188 39.2734 56.6611 40.541 54.5986 41.4434C52.5576 42.3457 50.3555 42.7969 47.9922 42.7969C46.5312 42.7969 45.1455 42.5928 43.835 42.1846C42.5459 41.7979 41.4287 41.207 40.4834 40.4121C39.5381 39.6172 38.7754 38.6396 38.1953 37.4795C37.6367 36.2979 37.3574 34.9443 37.3574 33.4189ZM49.7002 36.835C51.0107 36.835 52.2354 36.6738 53.374 36.3516C54.5342 36.0078 55.5547 35.5459 56.4355 34.9658C57.3164 34.3643 58.0039 33.6445 58.498 32.8066C59.0137 31.9688 59.2715 31.0449 59.2715 30.0352V28.9072C58.2188 28.7354 57.2305 28.6387 56.3066 28.6172C55.3828 28.5957 54.5664 28.585 53.8574 28.585C50.5918 28.585 48.1211 29.0146 46.4453 29.874C44.791 30.7334 43.9639 31.7969 43.9639 33.0645C43.9639 35.5781 45.876 36.835 49.7002 36.835Z" fill="#14142B"/>
<path d="M91.0518 42.0557H70.8779V36.0615H77.4521V6.02637H70.8779V0H84.123V36.0615H91.0518V42.0557Z" fill="#14142B"/>
<path d="M102.819 29.584C103.142 31.6465 104.119 33.3652 105.752 34.7402C107.406 36.0938 109.619 36.7705 112.391 36.7705C114.561 36.7705 116.44 36.4375 118.03 35.7715C119.642 35.084 121.027 34.1816 122.188 33.0645L125.604 37.7695C123.67 39.7031 121.618 41.0244 119.448 41.7334C117.3 42.4424 114.947 42.7969 112.391 42.7969C110.07 42.7969 107.911 42.4102 105.913 41.6367C103.915 40.8633 102.186 39.7891 100.725 38.4141C99.2637 37.0176 98.1143 35.3633 97.2764 33.4512C96.46 31.5391 96.0518 29.4121 96.0518 27.0703C96.0518 24.793 96.4277 22.6982 97.1797 20.7861C97.9531 18.8525 99.0273 17.1875 100.402 15.791C101.799 14.373 103.464 13.2773 105.397 12.5039C107.331 11.709 109.469 11.3115 111.811 11.3115C114.238 11.3115 116.44 11.7305 118.417 12.5684C120.394 13.3848 122.08 14.5771 123.477 16.1455C124.895 17.7139 126.001 19.6367 126.796 21.9141C127.591 24.1699 127.988 26.7266 127.988 29.584H102.819ZM120.447 23.7188C120.104 21.7852 119.104 20.2383 117.45 19.0781C115.796 17.8965 113.916 17.3057 111.811 17.3057C109.705 17.3057 107.814 17.8965 106.139 19.0781C104.463 20.2383 103.453 21.7852 103.109 23.7188H120.447Z" fill="#14142B"/>
<path d="M159.865 42.0557H153.194V23.5254C153.194 21.1836 152.754 19.5615 151.873 18.6592C150.992 17.7568 149.714 17.3057 148.038 17.3057C145.567 17.3057 143.548 18.3047 141.979 20.3027C140.433 22.3008 139.659 25.0615 139.659 28.585V42.0557H132.988V12.0205H139.659V19.5615C140.325 16.9619 141.561 14.9424 143.365 13.5029C145.17 12.042 147.394 11.3115 150.036 11.3115C153.108 11.3115 155.515 12.3105 157.255 14.3086C158.995 16.3066 159.865 19.3789 159.865 23.5254V42.0557Z" fill="#14142B"/>
<path d="M195.223 32.4844C194.879 35.6426 193.633 38.1562 191.484 40.0254C189.357 41.873 186.693 42.7969 183.492 42.7969C181.73 42.7969 180.119 42.5068 178.658 41.9268C177.197 41.3467 175.951 40.541 174.92 39.5098C173.889 38.4785 173.083 37.2432 172.503 35.8037C171.944 34.3428 171.665 32.7529 171.665 31.0342V18.0469H164.865V12.0205H171.665V0H178.336V12.0205H190.937V18.0469H178.336V31.0342C178.336 32.9678 178.809 34.4072 179.754 35.3525C180.699 36.2979 181.945 36.7705 183.492 36.7705C185.383 36.7705 186.79 36.2227 187.714 35.127C188.638 34.0312 189.186 32.71 189.357 31.1631L195.223 32.4844Z" fill="#14142B"/>
<path d="M244.223 12.0762H250.894V14.7832C252.161 13.6445 253.439 12.7959 254.729 12.2373C256.039 11.6572 257.532 11.3672 259.208 11.3672C261.142 11.3672 262.936 11.7646 264.59 12.5596C266.244 13.333 267.662 14.418 268.844 15.8145C270.025 17.1895 270.96 18.8545 271.647 20.8096C272.335 22.7432 272.679 24.8486 272.679 27.126C272.679 29.4248 272.335 31.541 271.647 33.4746C270.96 35.4082 270.025 37.0732 268.844 38.4697C267.662 39.8447 266.244 40.9189 264.59 41.6924C262.936 42.4658 261.142 42.8525 259.208 42.8525C257.532 42.8525 256.039 42.5518 254.729 41.9502C253.439 41.3486 252.161 40.4785 250.894 39.3398V54.1318H244.223V12.0762ZM250.894 34.0547C251.688 34.9355 252.698 35.623 253.923 36.1172C255.169 36.5898 256.361 36.8262 257.5 36.8262C260.014 36.8262 262.055 35.9346 263.623 34.1514C265.213 32.3682 266.008 30.0264 266.008 27.126C266.008 24.2256 265.213 21.873 263.623 20.0684C262.055 18.2637 260.014 17.3613 257.5 17.3613C256.361 17.3613 255.169 17.5977 253.923 18.0703C252.698 18.5215 251.688 19.1875 250.894 20.0684V34.0547Z" fill="#14142B"/>
<path d="M304.973 19.1982C304.178 18.8115 303.361 18.5215 302.523 18.3281C301.707 18.1133 300.762 18.0059 299.688 18.0059C298.205 18.0059 296.809 18.2314 295.498 18.6826C294.209 19.1123 293.092 19.7676 292.146 20.6484C291.201 21.5293 290.46 22.6357 289.923 23.9678C289.407 25.2783 289.149 26.8359 289.149 28.6406V36.1172H295.885V42.1113H275.679V36.1172H282.479V18.1025H275.679V12.0762H289.149V19.6172C290.245 16.6094 291.856 14.4824 293.983 13.2363C296.132 11.9902 298.678 11.3672 301.621 11.3672C302.545 11.3672 303.512 11.4639 304.521 11.6572C305.531 11.8506 306.52 12.1943 307.486 12.6885L304.973 19.1982Z" fill="#14142B"/>
<path d="M338.939 27.126C338.939 29.4678 338.563 31.5947 337.812 33.5068C337.081 35.4189 336.018 37.0732 334.621 38.4697C333.246 39.8447 331.592 40.9189 329.658 41.6924C327.725 42.4658 325.565 42.8525 323.181 42.8525C320.839 42.8525 318.701 42.4658 316.768 41.6924C314.834 40.9189 313.169 39.8447 311.772 38.4697C310.397 37.0732 309.334 35.4189 308.582 33.5068C307.852 31.5947 307.486 29.4678 307.486 27.126C307.486 24.8486 307.852 22.7432 308.582 20.8096C309.334 18.8545 310.397 17.1787 311.772 15.7822C313.169 14.3643 314.834 13.2793 316.768 12.5273C318.701 11.7539 320.839 11.3672 323.181 11.3672C325.565 11.3672 327.725 11.7539 329.658 12.5273C331.592 13.2793 333.246 14.3643 334.621 15.7822C336.018 17.1787 337.081 18.8545 337.812 20.8096C338.563 22.7432 338.939 24.8486 338.939 27.126ZM332.301 27.126C332.301 25.7725 332.086 24.4941 331.656 23.291C331.248 22.0664 330.646 21.0244 329.852 20.165C329.057 19.3057 328.09 18.6289 326.951 18.1348C325.834 17.6191 324.577 17.3613 323.181 17.3613C321.763 17.3613 320.495 17.6191 319.378 18.1348C318.261 18.6289 317.315 19.3057 316.542 20.165C315.769 21.0244 315.167 22.0664 314.737 23.291C314.329 24.4941 314.125 25.7725 314.125 27.126C314.125 28.5439 314.329 29.833 314.737 30.9932C315.167 32.1533 315.769 33.1738 316.542 34.0547C317.315 34.9355 318.261 35.623 319.378 36.1172C320.495 36.5898 321.763 36.8262 323.181 36.8262C324.577 36.8262 325.834 36.5898 326.951 36.1172C328.09 35.623 329.057 34.9355 329.852 34.0547C330.646 33.1738 331.248 32.1533 331.656 30.9932C332.086 29.833 332.301 28.5439 332.301 27.126Z" fill="#14142B"/>
<path d="M372.297 32.54C371.953 35.6982 370.707 38.2119 368.559 40.0811C366.432 41.9287 363.768 42.8525 360.566 42.8525C358.805 42.8525 357.193 42.5625 355.732 41.9824C354.271 41.4023 353.025 40.5967 351.994 39.5654C350.963 38.5342 350.157 37.2988 349.577 35.8594C349.019 34.3984 348.739 32.8086 348.739 31.0898V18.1025H341.939V12.0762H348.739V0.0556641H355.41V12.0762H368.011V18.1025H355.41V31.0898C355.41 33.0234 355.883 34.4629 356.828 35.4082C357.773 36.3535 359.02 36.8262 360.566 36.8262C362.457 36.8262 363.864 36.2783 364.788 35.1826C365.712 34.0869 366.26 32.7656 366.432 31.2188L372.297 32.54Z" fill="#14142B"/>
<path d="M406.75 27.126C406.75 29.4678 406.374 31.5947 405.622 33.5068C404.892 35.4189 403.828 37.0732 402.432 38.4697C401.057 39.8447 399.402 40.9189 397.469 41.6924C395.535 42.4658 393.376 42.8525 390.991 42.8525C388.649 42.8525 386.512 42.4658 384.578 41.6924C382.645 40.9189 380.979 39.8447 379.583 38.4697C378.208 37.0732 377.145 35.4189 376.393 33.5068C375.662 31.5947 375.297 29.4678 375.297 27.126C375.297 24.8486 375.662 22.7432 376.393 20.8096C377.145 18.8545 378.208 17.1787 379.583 15.7822C380.979 14.3643 382.645 13.2793 384.578 12.5273C386.512 11.7539 388.649 11.3672 390.991 11.3672C393.376 11.3672 395.535 11.7539 397.469 12.5273C399.402 13.2793 401.057 14.3643 402.432 15.7822C403.828 17.1787 404.892 18.8545 405.622 20.8096C406.374 22.7432 406.75 24.8486 406.75 27.126ZM400.111 27.126C400.111 25.7725 399.896 24.4941 399.467 23.291C399.059 22.0664 398.457 21.0244 397.662 20.165C396.867 19.3057 395.9 18.6289 394.762 18.1348C393.645 17.6191 392.388 17.3613 390.991 17.3613C389.573 17.3613 388.306 17.6191 387.188 18.1348C386.071 18.6289 385.126 19.3057 384.353 20.165C383.579 21.0244 382.978 22.0664 382.548 23.291C382.14 24.4941 381.936 25.7725 381.936 27.126C381.936 28.5439 382.14 29.833 382.548 30.9932C382.978 32.1533 383.579 33.1738 384.353 34.0547C385.126 34.9355 386.071 35.623 387.188 36.1172C388.306 36.5898 389.573 36.8262 390.991 36.8262C392.388 36.8262 393.645 36.5898 394.762 36.1172C395.9 35.623 396.867 34.9355 397.662 34.0547C398.457 33.1738 399.059 32.1533 399.467 30.9932C399.896 29.833 400.111 28.5439 400.111 27.126Z" fill="#14142B"/>
<path d="M439.302 37.8252C437.368 39.7588 435.327 41.0801 433.179 41.7891C431.052 42.498 428.742 42.8525 426.25 42.8525C423.736 42.8525 421.448 42.4766 419.386 41.7246C417.345 40.9727 415.604 39.9199 414.165 38.5664C412.747 37.1914 411.651 35.5371 410.878 33.6035C410.126 31.6699 409.75 29.5107 409.75 27.126C409.75 24.8486 410.126 22.7432 410.878 20.8096C411.651 18.8545 412.683 17.1895 413.972 15.8145C415.282 14.418 416.818 13.333 418.58 12.5596C420.342 11.7646 422.211 11.3672 424.188 11.3672C426.25 11.3672 428.044 11.7969 429.569 12.6562C431.095 13.5156 432.201 14.7725 432.889 16.4268V12.0762H438.851V26.0625H432.889C432.889 23.4199 432.158 21.3145 430.697 19.7461C429.258 18.1562 427.378 17.3613 425.058 17.3613C424.134 17.3613 423.156 17.5547 422.125 17.9414C421.115 18.3066 420.181 18.8867 419.321 19.6816C418.483 20.4766 417.785 21.4863 417.227 22.7109C416.668 23.9355 416.389 25.4072 416.389 27.126C416.389 28.8018 416.657 30.252 417.194 31.4766C417.731 32.6797 418.43 33.6787 419.289 34.4736C420.17 35.2471 421.201 35.8379 422.383 36.2461C423.586 36.6328 424.821 36.8262 426.089 36.8262C428.259 36.8262 430.139 36.4932 431.729 35.8271C433.34 35.1396 434.726 34.2373 435.886 33.1201L439.302 37.8252Z" fill="#14142B"/>
<path d="M473.755 27.126C473.755 29.4678 473.379 31.5947 472.627 33.5068C471.896 35.4189 470.833 37.0732 469.437 38.4697C468.062 39.8447 466.407 40.9189 464.474 41.6924C462.54 42.4658 460.381 42.8525 457.996 42.8525C455.654 42.8525 453.517 42.4658 451.583 41.6924C449.649 40.9189 447.984 39.8447 446.588 38.4697C445.213 37.0732 444.149 35.4189 443.397 33.5068C442.667 31.5947 442.302 29.4678 442.302 27.126C442.302 24.8486 442.667 22.7432 443.397 20.8096C444.149 18.8545 445.213 17.1787 446.588 15.7822C447.984 14.3643 449.649 13.2793 451.583 12.5273C453.517 11.7539 455.654 11.3672 457.996 11.3672C460.381 11.3672 462.54 11.7539 464.474 12.5273C466.407 13.2793 468.062 14.3643 469.437 15.7822C470.833 17.1787 471.896 18.8545 472.627 20.8096C473.379 22.7432 473.755 24.8486 473.755 27.126ZM467.116 27.126C467.116 25.7725 466.901 24.4941 466.472 23.291C466.063 22.0664 465.462 21.0244 464.667 20.165C463.872 19.3057 462.905 18.6289 461.767 18.1348C460.649 17.6191 459.393 17.3613 457.996 17.3613C456.578 17.3613 455.311 17.6191 454.193 18.1348C453.076 18.6289 452.131 19.3057 451.357 20.165C450.584 21.0244 449.982 22.0664 449.553 23.291C449.145 24.4941 448.94 25.7725 448.94 27.126C448.94 28.5439 449.145 29.833 449.553 30.9932C449.982 32.1533 450.584 33.1738 451.357 34.0547C452.131 34.9355 453.076 35.623 454.193 36.1172C455.311 36.5898 456.578 36.8262 457.996 36.8262C459.393 36.8262 460.649 36.5898 461.767 36.1172C462.905 35.623 463.872 34.9355 464.667 34.0547C465.462 33.1738 466.063 32.1533 466.472 30.9932C466.901 29.833 467.116 28.5439 467.116 27.126Z" fill="#14142B"/>
<path d="M496.929 42.1113H476.755V36.1172H483.329V6.08203H476.755V0.0556641H490V36.1172H496.929V42.1113Z" fill="#14142B"/>
<path opacity="0.3" d="M218.5 6.05566C218.5 17.7557 226.3 25.5557 238 25.5557C226.3 25.5557 218.5 33.3557 218.5 45.0557C218.5 33.3557 210.7 25.5557 199 25.5557C210.7 25.5557 218.5 17.7557 218.5 6.05566Z" fill="#14142B"/>
</svg>
