<svg width="32" height="32" viewBox="0 0 32 32" fill="none" xmlns="http://www.w3.org/2000/svg">
<path d="M27.5304 3.5656L17.5367 10.9881L19.3847 6.60891L27.5304 3.5656Z" fill="#E2761B" stroke="#E2761B" stroke-linecap="round" stroke-linejoin="round"/>
<path d="M4.4595 3.5656L14.3729 11.0584L12.6152 6.60891L4.4595 3.5656Z" fill="#E4761B" stroke="#E4761B" stroke-linecap="round" stroke-linejoin="round"/>
<path d="M23.9347 20.7708L21.273 24.8487L26.9679 26.4155L28.6051 20.8612L23.9347 20.7708Z" fill="#E4761B" stroke="#E4761B" stroke-linecap="round" stroke-linejoin="round"/>
<path d="M3.40488 20.8612L5.032 26.4155L10.7269 24.8487L8.06527 20.7708L3.40488 20.8612Z" fill="#E4761B" stroke="#E4761B" stroke-linecap="round" stroke-linejoin="round"/>
<path d="M10.4055 13.8807L8.81854 16.2812L14.4733 16.5323L14.2724 10.4558L10.4055 13.8807Z" fill="#E4761B" stroke="#E4761B" stroke-linecap="round" stroke-linejoin="round"/>
<path d="M21.5843 13.8807L17.6672 10.3854L17.5367 16.5323L23.1813 16.2812L21.5843 13.8807Z" fill="#E4761B" stroke="#E4761B" stroke-linecap="round" stroke-linejoin="round"/>
<path d="M10.7269 24.8487L14.1218 23.1915L11.1889 20.9015L10.7269 24.8487Z" fill="#E4761B" stroke="#E4761B" stroke-linecap="round" stroke-linejoin="round"/>
<path d="M17.8683 23.1915L21.2732 24.8487L20.8011 20.9015L17.8683 23.1915Z" fill="#E4761B" stroke="#E4761B" stroke-linecap="round" stroke-linejoin="round"/>
<path d="M21.2729 24.8487L17.868 23.1914L18.1392 25.4111L18.1091 26.3452L21.2729 24.8487Z" fill="#D7C1B3" stroke="#D7C1B3" stroke-linecap="round" stroke-linejoin="round"/>
<path d="M10.7269 24.8487L13.8907 26.3452L13.8707 25.4111L14.1218 23.1914L10.7269 24.8487Z" fill="#D7C1B3" stroke="#D7C1B3" stroke-linecap="round" stroke-linejoin="round"/>
<path d="M13.9409 19.4351L11.1085 18.6014L13.1072 17.6874L13.9409 19.4351Z" fill="#233447" stroke="#233447" stroke-linecap="round" stroke-linejoin="round"/>
<path d="M18.049 19.4351L18.8827 17.6874L20.8914 18.6014L18.049 19.4351Z" fill="#233447" stroke="#233447" stroke-linecap="round" stroke-linejoin="round"/>
<path d="M10.7269 24.8488L11.209 20.7709L8.06525 20.8613L10.7269 24.8488Z" fill="#CD6116" stroke="#CD6116" stroke-linecap="round" stroke-linejoin="round"/>
<path d="M20.791 20.7709L21.2731 24.8488L23.9347 20.8613L20.791 20.7709Z" fill="#CD6116" stroke="#CD6116" stroke-linecap="round" stroke-linejoin="round"/>
<path d="M23.1813 16.2813L17.5367 16.5324L18.0589 19.4351L18.8926 17.6874L20.9014 18.6014L23.1813 16.2813Z" fill="#CD6116" stroke="#CD6116" stroke-linecap="round" stroke-linejoin="round"/>
<path d="M11.1086 18.6014L13.1173 17.6874L13.941 19.4351L14.4733 16.5324L8.81854 16.2813L11.1086 18.6014Z" fill="#CD6116" stroke="#CD6116" stroke-linecap="round" stroke-linejoin="round"/>
<path d="M8.81854 16.2813L11.1889 20.9015L11.1086 18.6014L8.81854 16.2813Z" fill="#E4751F" stroke="#E4751F" stroke-linecap="round" stroke-linejoin="round"/>
<path d="M20.9014 18.6014L20.8009 20.9015L23.1813 16.2813L20.9014 18.6014Z" fill="#E4751F" stroke="#E4751F" stroke-linecap="round" stroke-linejoin="round"/>
<path d="M14.4733 16.5324L13.9409 19.4351L14.6038 22.86L14.7545 18.3503L14.4733 16.5324Z" fill="#E4751F" stroke="#E4751F" stroke-linecap="round" stroke-linejoin="round"/>
<path d="M17.5366 16.5324L17.2654 18.3403L17.3859 22.86L18.0589 19.4351L17.5366 16.5324Z" fill="#E4751F" stroke="#E4751F" stroke-linecap="round" stroke-linejoin="round"/>
<path d="M18.0589 19.4351L17.386 22.8601L17.8681 23.1915L20.8009 20.9015L20.9014 18.6014L18.0589 19.4351Z" fill="#F6851B" stroke="#F6851B" stroke-linecap="round" stroke-linejoin="round"/>
<path d="M11.1085 18.6014L11.1888 20.9015L14.1217 23.1915L14.6038 22.8601L13.9409 19.4351L11.1085 18.6014Z" fill="#F6851B" stroke="#F6851B" stroke-linecap="round" stroke-linejoin="round"/>
<path d="M18.1092 26.3452L18.1393 25.4111L17.8882 25.1902H14.1017L13.8706 25.4111L13.8907 26.3452L10.7269 24.8487L11.8317 25.7526L14.0715 27.3095H17.9183L20.1682 25.7526L21.273 24.8487L18.1092 26.3452Z" fill="#C0AD9E" stroke="#C0AD9E" stroke-linecap="round" stroke-linejoin="round"/>
<path d="M17.8681 23.1915L17.386 22.86H14.6038L14.1217 23.1915L13.8706 25.4112L14.1016 25.1902H17.8882L18.1393 25.4112L17.8681 23.1915Z" fill="#161616" stroke="#161616" stroke-linecap="round" stroke-linejoin="round"/>
<path d="M27.9522 11.4702L28.8059 7.37225L27.5303 3.5656L17.868 10.737L21.5843 13.8807L26.8373 15.4174L28.0024 14.0615L27.5002 13.6999L28.3037 12.9667L27.681 12.4846L28.4845 11.8719L27.9522 11.4702Z" fill="#763D16" stroke="#763D16" stroke-linecap="round" stroke-linejoin="round"/>
<path d="M3.19394 7.37225L4.04767 11.4702L3.5053 11.8719L4.30882 12.4846L3.69614 12.9667L4.49965 13.6999L3.99745 14.0615L5.15251 15.4174L10.4055 13.8807L14.1217 10.737L4.45948 3.5656L3.19394 7.37225Z" fill="#763D16" stroke="#763D16" stroke-linecap="round" stroke-linejoin="round"/>
<path d="M26.8373 15.4175L21.5844 13.8808L23.1813 16.2813L20.8009 20.9015L23.9346 20.8613H28.6051L26.8373 15.4175Z" fill="#F6851B" stroke="#F6851B" stroke-linecap="round" stroke-linejoin="round"/>
<path d="M10.4055 13.8808L5.15252 15.4175L3.40488 20.8613H8.06526L11.1889 20.9015L8.81856 16.2813L10.4055 13.8808Z" fill="#F6851B" stroke="#F6851B" stroke-linecap="round" stroke-linejoin="round"/>
<path d="M17.5366 16.5323L17.8681 10.7369L19.3948 6.60887H12.6151L14.1217 10.7369L14.4732 16.5323L14.5938 18.3603L14.6038 22.86H17.386L17.4061 18.3603L17.5366 16.5323Z" fill="#F6851B" stroke="#F6851B" stroke-linecap="round" stroke-linejoin="round"/>
</svg>
